<svg xmlns="http://www.w3.org/2000/svg" version="1.1" xmlns:xlink="http://www.w3.org/1999/xlink" xmlns:svgjs="http://svgjs.dev/svgjs" width="1500" height="367" viewBox="0 0 1500 367"><g transform="matrix(1,0,0,1,-0.9090909090909918,0.20217314798256325)"><svg viewBox="0 0 396 97" data-background-color="#352622" preserveAspectRatio="xMidYMid meet" height="367" width="1500" xmlns="http://www.w3.org/2000/svg" xmlns:xlink="http://www.w3.org/1999/xlink"><g id="tight-bounds" transform="matrix(1,0,0,1,0.2400000000000091,-0.053435409684766455)"><svg viewBox="0 0 395.52 97.10687081936953" height="97.10687081936953" width="395.52"><g><svg viewBox="0 0 619.1301328169352 152.00695243687608" height="97.10687081936953" width="395.52"><g transform="matrix(1,0,0,1,223.6101328169352,46.972354668232526)"><svg viewBox="0 0 395.52 58.06224310041103" height="58.06224310041103" width="395.52"><g id="textblocktransform"><svg viewBox="0 0 395.52 58.06224310041103" height="58.06224310041103" width="395.52" id="textblock"><g><svg viewBox="0 0 395.52 58.06224310041103" height="58.06224310041103" width="395.52"><g transform="matrix(1,0,0,1,0,0)"><svg width="395.52" viewBox="4.5 -36.75 255.43 37.5" height="58.06224310041103" data-palette-color="#ffae64"><path d="M27.1 0L22.05 0 14-14.1 8.75-14.1 8.75 0 4.5 0 4.5-36 12-36Q17.85-36 21.15-33.33 24.45-30.65 24.45-24.9L24.45-24.9Q24.45-22.85 23.95-21.28 23.45-19.7 22.6-18.5 21.75-17.3 20.6-16.45 19.45-15.6 18.15-15.05L18.15-15.05 27.1 0ZM11.95-32.75L8.75-32.75 8.75-17.35 12.1-17.35Q16-17.35 18.05-19.23 20.1-21.1 20.1-24.9L20.1-24.9Q20.1-28.7 18.25-30.73 16.4-32.75 11.95-32.75L11.95-32.75ZM32.1-28L36.2-28 36.2-8.75Q36.2-5.9 37.72-4.25 39.25-2.6 42.8-2.6L42.8-2.6Q46.35-2.6 47.9-4.25 49.45-5.9 49.45-8.75L49.45-8.75 49.45-28 53.4-28 53.4-9.05Q53.4-4.65 50.65-1.95 47.9 0.75 42.75 0.75L42.75 0.75Q37.65 0.75 34.87-1.95 32.1-4.65 32.1-9.05L32.1-9.05 32.1-28ZM60.15-5.2L63.6-6.8Q63.9-6.1 64.5-5.33 65.09-4.55 66-3.9 66.9-3.25 68.12-2.85 69.34-2.45 70.84-2.45L70.84-2.45Q71.95-2.45 73.05-2.7 74.15-2.95 75-3.5 75.84-4.05 76.4-4.93 76.95-5.8 76.95-7.05L76.95-7.05Q76.95-8.3 76.57-9.13 76.2-9.95 75.3-10.58 74.4-11.2 72.9-11.78 71.4-12.35 69.15-13.1L69.15-13.1Q65.55-14.3 63.47-16.1 61.4-17.9 61.4-21.05L61.4-21.05Q61.4-22.45 62.05-23.78 62.7-25.1 63.92-26.13 65.15-27.15 66.92-27.75 68.7-28.35 71-28.35L71-28.35Q74.45-28.35 76.87-26.9 79.3-25.45 80.59-23.05L80.59-23.05 77.09-21.65Q76.2-23.4 74.77-24.33 73.34-25.25 71.09-25.25L71.09-25.25Q70-25.25 68.95-25.03 67.9-24.8 67.09-24.33 66.3-23.85 65.8-23.13 65.3-22.4 65.3-21.35L65.3-21.35Q65.3-20.3 65.67-19.58 66.05-18.85 66.84-18.25 67.65-17.65 68.95-17.13 70.25-16.6 72.15-15.9L72.15-15.9Q74.34-15.1 76-14.38 77.65-13.65 78.77-12.7 79.9-11.75 80.45-10.45 81-9.15 81-7.2L81-7.2Q81-5.45 80.27-4 79.55-2.55 78.22-1.5 76.9-0.45 75.02 0.15 73.15 0.75 70.84 0.75L70.84 0.75Q68.59 0.75 66.82 0.2 65.05-0.35 63.72-1.23 62.4-2.1 61.5-3.15 60.6-4.2 60.15-5.2L60.15-5.2ZM105.84-28L105.84-24.45 97.54-24.45 97.54 0 93.44 0 93.44-24.45 85.24-24.45 85.24-28 105.84-28ZM126.84-28L130.94-28 121.34-10.8 121.34 0 117.34 0 117.34-10.8 107.59-28 112.19-28 119.44-14.5 126.84-28ZM160.63-33.45L160.63-33.45Q157.84-33.45 156.03-32.13 154.24-30.8 154.24-27.95L154.24-27.95Q154.24-26.65 154.59-25.65 154.94-24.65 155.76-23.85 156.59-23.05 157.94-22.33 159.28-21.6 161.28-20.85L161.28-20.85Q163.24-20.1 164.99-19.2 166.74-18.3 168.06-17 169.38-15.7 170.16-13.85 170.94-12 170.94-9.35L170.94-9.35Q170.94-7.3 170.11-5.45 169.28-3.6 167.81-2.23 166.34-0.85 164.28-0.05 162.24 0.75 159.78 0.75L159.78 0.75Q157.28 0.75 155.41 0.13 153.53-0.5 152.19-1.53 150.84-2.55 149.96-3.85 149.09-5.15 148.59-6.55L148.59-6.55 152.19-7.9Q152.53-6.9 153.11-5.95 153.69-5 154.59-4.28 155.49-3.55 156.76-3.1 158.03-2.65 159.84-2.65L159.84-2.65Q161.03-2.65 162.24-2.98 163.44-3.3 164.41-4.05 165.38-4.8 165.99-6.05 166.59-7.3 166.59-9.1L166.59-9.1Q166.59-11 166.11-12.25 165.63-13.5 164.61-14.45 163.59-15.4 161.94-16.15 160.28-16.9 157.99-17.85L157.99-17.85Q153.94-19.5 152.01-21.85 150.09-24.2 150.09-27.65L150.09-27.65Q150.09-29.55 150.78-31.23 151.49-32.9 152.84-34.13 154.19-35.35 156.11-36.05 158.03-36.75 160.53-36.75L160.53-36.75Q164.78-36.75 167.19-35.02 169.59-33.3 170.88-30.35L170.88-30.35 167.19-29.05Q166.34-31.15 164.84-32.3 163.34-33.45 160.63-33.45ZM195.53-28L199.68-28 199.68 0 195.53 0 195.53-12.55 182.43-12.55 182.43 0 178.33 0 178.33-28 182.43-28 182.43-15.9 195.53-15.9 195.53-28ZM207.68-14L207.68-14Q207.68-17.9 208.73-20.7 209.78-23.5 211.53-25.3 213.28-27.1 215.56-27.93 217.83-28.75 220.23-28.75L220.23-28.75Q222.63-28.75 224.91-27.93 227.18-27.1 228.93-25.3 230.68-23.5 231.73-20.7 232.78-17.9 232.78-14L232.78-14Q232.78-10.1 231.73-7.3 230.68-4.5 228.91-2.7 227.13-0.9 224.88-0.08 222.63 0.75 220.23 0.75L220.23 0.75Q217.83 0.75 215.58-0.08 213.33-0.9 211.56-2.7 209.78-4.5 208.73-7.3 207.68-10.1 207.68-14ZM211.88-14L211.88-14Q211.88-8.3 214.11-5.43 216.33-2.55 220.23-2.55L220.23-2.55Q224.13-2.55 226.36-5.43 228.58-8.3 228.58-14L228.58-14Q228.58-19.7 226.36-22.6 224.13-25.5 220.23-25.5L220.23-25.5Q216.33-25.5 214.11-22.63 211.88-19.75 211.88-14ZM240.78-28L248.48-28Q251.03-28 253.13-27.43 255.23-26.85 256.73-25.73 258.23-24.6 259.08-22.85 259.93-21.1 259.93-18.8L259.93-18.8Q259.93-16.45 259.05-14.73 258.18-13 256.6-11.85 255.03-10.7 252.9-10.15 250.78-9.6 248.28-9.6L248.28-9.6 244.83-9.6 244.83 0 240.78 0 240.78-28ZM248.58-24.9L244.83-24.9 244.83-12.7 248.38-12.7Q255.78-12.7 255.78-18.8L255.78-18.8Q255.78-21.75 253.95-23.33 252.13-24.9 248.58-24.9L248.58-24.9Z" opacity="1" transform="matrix(1,0,0,1,0,0)" fill="#ffae64" class="wordmark-text-0" data-fill-palette-color="primary" id="text-0"></path></svg></g></svg></g></svg></g></svg></g><g><svg viewBox="0 0 209.90303071476256 152.00695243687608" height="152.00695243687608" width="209.90303071476256"><g><svg xmlns="http://www.w3.org/2000/svg" xmlns:xlink="http://www.w3.org/1999/xlink" version="1.1" x="0" y="0" viewBox="25.303 32.115 49.394000000000005 35.77" enable-background="new 0 0 100 100" xml:space="preserve" height="152.00695243687608" width="209.90303071476256" class="icon-icon-0" data-fill-palette-color="accent" id="icon-0"><path d="M56.812 32.115c-9.862 0-17.886 8.023-17.886 17.886 0 9.861 8.023 17.884 17.886 17.884S74.697 59.861 74.697 50C74.697 40.138 66.674 32.115 56.812 32.115zM56.812 64.885c-8.208 0-14.886-6.678-14.886-14.884 0-8.208 6.678-14.886 14.886-14.886S71.697 41.792 71.697 50C71.697 58.207 65.02 64.885 56.812 64.885zM58.312 49.378v-10.39c0-0.828-0.672-1.5-1.5-1.5s-1.5 0.672-1.5 1.5V50c0 0.196 0.04 0.383 0.109 0.556 0.001 0.004 0.002 0.008 0.003 0.012 0.077 0.188 0.19 0.357 0.333 0.498l5.062 5.062c0.293 0.293 0.677 0.439 1.061 0.439s0.768-0.146 1.061-0.439c0.586-0.586 0.586-1.535 0-2.121L58.312 49.378zM29.135 45.228h6.623c0.829 0 1.5-0.672 1.5-1.5s-0.671-1.5-1.5-1.5h-6.623c-0.829 0-1.5 0.672-1.5 1.5S28.306 45.228 29.135 45.228zM35.926 50c0-0.828-0.671-1.5-1.5-1.5h-7.623c-0.829 0-1.5 0.672-1.5 1.5 0 0.828 0.671 1.5 1.5 1.5h7.623C35.255 51.5 35.926 50.828 35.926 50zM34.467 38.956h4.623c0.829 0 1.5-0.672 1.5-1.5s-0.671-1.5-1.5-1.5h-4.623c-0.829 0-1.5 0.672-1.5 1.5S33.638 38.956 34.467 38.956zM37.258 56.273c0-0.828-0.671-1.5-1.5-1.5h-6.623c-0.829 0-1.5 0.672-1.5 1.5s0.671 1.5 1.5 1.5h6.623C36.587 57.773 37.258 57.102 37.258 56.273zM39.09 61.045h-4.623c-0.829 0-1.5 0.672-1.5 1.5s0.671 1.5 1.5 1.5h4.623c0.829 0 1.5-0.672 1.5-1.5S39.919 61.045 39.09 61.045z" fill="#0afff1" data-fill-palette-color="accent"></path></svg></g></svg></g></svg></g><defs></defs></svg><rect width="395.52" height="97.10687081936953" fill="none" stroke="none" visibility="hidden"></rect></g></svg></g></svg>