<svg xmlns="http://www.w3.org/2000/svg" version="1.1" xmlns:xlink="http://www.w3.org/1999/xlink" xmlns:svgjs="http://svgjs.dev/svgjs" width="128" height="128" viewBox="0 0 128 128"><g transform="matrix(0.8046875,0,0,0.8046875,12.760752631578946,27.06224009052213)"><svg viewBox="0 0 95 69" data-background-color="#352622" preserveAspectRatio="xMidYMid meet" height="92" width="128" xmlns="http://www.w3.org/2000/svg" xmlns:xlink="http://www.w3.org/1999/xlink"><g id="tight-bounds" transform="matrix(1,0,0,1,-0.24049999999999727,-0.07257328825363629)"><svg viewBox="0 0 95.481 69.14514657650726" height="69.14514657650726" width="95.481"><g><svg viewBox="0 0 95.481 69.14514657650726" height="69.14514657650726" width="95.481"><g><svg viewBox="0 0 95.481 69.14514657650726" height="69.14514657650726" width="95.481"><g id="textblocktransform"><svg viewBox="0 0 95.481 69.14514657650726" height="69.14514657650726" width="95.481" id="textblock"><g><svg viewBox="0 0 95.481 69.14514657650726" height="69.14514657650726" width="95.481"><g><svg viewBox="0 0 95.481 69.14514657650726" height="69.14514657650726" width="95.481"><g><svg xmlns="http://www.w3.org/2000/svg" xmlns:xlink="http://www.w3.org/1999/xlink" version="1.1" x="0" y="0" viewBox="25.303 32.115 49.394000000000005 35.77" enable-background="new 0 0 100 100" xml:space="preserve" height="69.14514657650726" width="95.481" class="icon-icon-0" data-fill-palette-color="accent" id="icon-0"><path d="M56.812 32.115c-9.862 0-17.886 8.023-17.886 17.886 0 9.861 8.023 17.884 17.886 17.884S74.697 59.861 74.697 50C74.697 40.138 66.674 32.115 56.812 32.115zM56.812 64.885c-8.208 0-14.886-6.678-14.886-14.884 0-8.208 6.678-14.886 14.886-14.886S71.697 41.792 71.697 50C71.697 58.207 65.02 64.885 56.812 64.885zM58.312 49.378v-10.39c0-0.828-0.672-1.5-1.5-1.5s-1.5 0.672-1.5 1.5V50c0 0.196 0.04 0.383 0.109 0.556 0.001 0.004 0.002 0.008 0.003 0.012 0.077 0.188 0.19 0.357 0.333 0.498l5.062 5.062c0.293 0.293 0.677 0.439 1.061 0.439s0.768-0.146 1.061-0.439c0.586-0.586 0.586-1.535 0-2.121L58.312 49.378zM29.135 45.228h6.623c0.829 0 1.5-0.672 1.5-1.5s-0.671-1.5-1.5-1.5h-6.623c-0.829 0-1.5 0.672-1.5 1.5S28.306 45.228 29.135 45.228zM35.926 50c0-0.828-0.671-1.5-1.5-1.5h-7.623c-0.829 0-1.5 0.672-1.5 1.5 0 0.828 0.671 1.5 1.5 1.5h7.623C35.255 51.5 35.926 50.828 35.926 50zM34.467 38.956h4.623c0.829 0 1.5-0.672 1.5-1.5s-0.671-1.5-1.5-1.5h-4.623c-0.829 0-1.5 0.672-1.5 1.5S33.638 38.956 34.467 38.956zM37.258 56.273c0-0.828-0.671-1.5-1.5-1.5h-6.623c-0.829 0-1.5 0.672-1.5 1.5s0.671 1.5 1.5 1.5h6.623C36.587 57.773 37.258 57.102 37.258 56.273zM39.09 61.045h-4.623c-0.829 0-1.5 0.672-1.5 1.5s0.671 1.5 1.5 1.5h4.623c0.829 0 1.5-0.672 1.5-1.5S39.919 61.045 39.09 61.045z" fill="#ffffff" data-fill-palette-color="accent"></path></svg></g></svg></g></svg></g></svg></g></svg></g></svg></g><defs></defs></svg><rect width="95.481" height="69.14514657650726" fill="none" stroke="none" visibility="hidden"></rect></g></svg></g></svg>